<?xml version="1.0" encoding="UTF-8" standalone="no"?>
<svg
   xmlns:dc="http://purl.org/dc/elements/1.1/"
   xmlns:cc="http://creativecommons.org/ns#"
   xmlns:rdf="http://www.w3.org/1999/02/22-rdf-syntax-ns#"
   xmlns:svg="http://www.w3.org/2000/svg"
   xmlns="http://www.w3.org/2000/svg"
   xmlns:sodipodi="http://sodipodi.sourceforge.net/DTD/sodipodi-0.dtd"
   xmlns:inkscape="http://www.inkscape.org/namespaces/inkscape"
   version="1.0"
   width="1250.000000pt"
   height="781.000000pt"
   viewBox="0 0 1250.000000 781.000000"
   preserveAspectRatio="xMidYMid meet"
   id="svg12"
   sodipodi:docname="gwave.svg"
   inkscape:version="1.0 (4035a4fb49, 2020-05-01)">
  <metadata
     id="metadata18">
    <rdf:RDF>
      <cc:Work
         rdf:about="">
        <dc:format>image/svg+xml</dc:format>
        <dc:type
           rdf:resource="http://purl.org/dc/dcmitype/StillImage" />
        <dc:title></dc:title>
      </cc:Work>
    </rdf:RDF>
  </metadata>
  <defs
     id="defs16" />
  <sodipodi:namedview
     inkscape:document-rotation="0"
     pagecolor="#ffffff"
     bordercolor="#666666"
     borderopacity="1"
     objecttolerance="10"
     gridtolerance="10"
     guidetolerance="10"
     inkscape:pageopacity="0"
     inkscape:pageshadow="2"
     inkscape:window-width="1920"
     inkscape:window-height="1046"
     id="namedview14"
     showgrid="false"
     inkscape:zoom="0.7782"
     inkscape:cx="833.33333"
     inkscape:cy="520.66667"
     inkscape:window-x="-11"
     inkscape:window-y="-11"
     inkscape:window-maximized="1"
     inkscape:current-layer="svg12" />
  <g
     transform="translate(0.000000,781.000000) scale(0.100000,-0.100000)"
     fill="#000000"
     stroke="none"
     id="g10"
     style="fill:#000000;fill-opacity:0.75">
    <path
       d="M6639 607 c-117 -40 -191 -113 -295 -292 -32 -54 -77 -118 -99 -142 -38 -39 -46 -43 -91 -43 -73 0 -105 27 -204 176 -73 110 -93 134 -139 161 -95 57 -216 54 -301 -8 -22 -16 -92 -98 -155 -183 -145 -194 -179 -226 -240 -226 -103 0 -149 45 -194 187 -23 76 -38 105 -63 129 -46 44 -69 54 -125 54 -82 0 -108 -22 -208 -171 -83 -124 -94 -136 -147 -163 -46 -23 -70 -29 -118 -28 -83 1 -132 30 -193 112 -153 209 -195 240 -322 240 -121 0 -185 -34 -260 -136 -84 -114 -130 -139 -245 -132 -99 5 -128 31 -230 199 -32 53 -70 73 -127 66 -66 -7 -98 -43 -129 -143 -20 -67 -32 -89 -64 -118 -32 -29 -48 -36 -80 -36 -83 0 -128 36 -183 146 -52 104 -118 153 -205 154 -93 0 -154 -46 -212 -161 -78 -155 -177 -204 -290 -146 -47 23 -76 61 -175 232 -61 105 -97 135 -162 135 -51 0 -107 -23 -128 -53 -7 -11 -37 -89 -66 -175 -40 -117 -60 -162 -85 -188 -21 -23 -28 -37 -20 -42 17 -10 3891 -15 5774 -7 l1654 7 -31 32 c-16 17 -57 87 -90 156 -101 211 -154 255 -306 255 -109 0 -147 -17 -270 -121 -116 -97 -145 -109 -285 -109 -165 0 -195 16 -365 189 -71 74 -150 145 -175 159 -107 60 -236 73 -351 34z"
       id="path2"
       style="fill:#000000;fill-opacity:0.75" />
    <path
       d="M9010 449 c-73 -30 -132 -92 -220 -236 -40 -65 -90 -137 -112 -159 l-40 -42 214 -7 c117 -3 354 -5 527 -3 l315 3 -41 27 c-22 14 -75 71 -118 125 -178 222 -206 252 -264 280 -78 37 -184 42 -261 12z"
       id="path4"
       style="fill:#000000;fill-opacity:0.75" />
    <path
       d="M10349 451 c-62 -13 -144 -59 -191 -106 -24 -25 -69 -91 -98 -146 -38 -72 -68 -114 -103 -144 l-49 -43 314 -7 c405 -9 2254 -3 2265 8 11 12 -19 34 -171 130 -71 45 -161 111 -199 146 -88 81 -142 105 -227 105 -119 0 -184 -40 -266 -164 -81 -123 -171 -185 -289 -200 -127 -16 -182 9 -408 179 -213 160 -298 218 -342 230 -53 15 -191 22 -236 12z"
       id="path6"
       style="fill:#000000;fill-opacity:0.75" />
    <path
       d="M447 376 c-54 -15 -105 -59 -142 -122 -33 -56 -105 -119 -211 -184 l-89 -55 65 -6 c36 -4 235 -7 443 -8 l378 -1 -39 38 c-21 20 -71 94 -111 165 -61 106 -79 131 -114 151 -53 31 -119 39 -180 22z"
       id="path8"
       style="fill:#000000;fill-opacity:0.75" />
  </g>
</svg>
