<?xml version="1.0" encoding="UTF-8" standalone="no"?>
<svg
   xmlns:dc="http://purl.org/dc/elements/1.1/"
   xmlns:cc="http://creativecommons.org/ns#"
   xmlns:rdf="http://www.w3.org/1999/02/22-rdf-syntax-ns#"
   xmlns:svg="http://www.w3.org/2000/svg"
   xmlns="http://www.w3.org/2000/svg"
   xmlns:sodipodi="http://sodipodi.sourceforge.net/DTD/sodipodi-0.dtd"
   xmlns:inkscape="http://www.inkscape.org/namespaces/inkscape"
   version="1.0"
   width="1250.000000pt"
   height="781.000000pt"
   viewBox="0 0 1250.000000 781.000000"
   preserveAspectRatio="xMidYMid meet"
   id="svg12"
   sodipodi:docname="wave.svg"
   inkscape:version="1.0 (4035a4fb49, 2020-05-01)">
  <metadata
     id="metadata18">
    <rdf:RDF>
      <cc:Work
         rdf:about="">
        <dc:format>image/svg+xml</dc:format>
        <dc:type
           rdf:resource="http://purl.org/dc/dcmitype/StillImage" />
        <dc:title></dc:title>
      </cc:Work>
    </rdf:RDF>
  </metadata>
  <defs
     id="defs16">
    <filter
       height="1.01441"
       y="-0.0072049765"
       width="1.0005233"
       x="-0.00026163322"
       id="filter911"
       style="color-interpolation-filters:sRGB"
       inkscape:collect="always">
      <feGaussianBlur
         id="feGaussianBlur913"
         stdDeviation="0.15045087"
         inkscape:collect="always" />
    </filter>
  </defs>
  <sodipodi:namedview
     inkscape:document-rotation="0"
     pagecolor="#ffffff"
     bordercolor="#666666"
     borderopacity="1"
     objecttolerance="10"
     gridtolerance="10"
     guidetolerance="10"
     inkscape:pageopacity="0"
     inkscape:pageshadow="2"
     inkscape:window-width="1920"
     inkscape:window-height="1046"
     id="namedview14"
     showgrid="false"
     inkscape:zoom="1.100541"
     inkscape:cx="710.84786"
     inkscape:cy="984.49203"
     inkscape:window-x="-11"
     inkscape:window-y="-11"
     inkscape:window-maximized="1"
     inkscape:current-layer="svg12" />
  <g
     transform="matrix(0.1,0,0,-0.1,0,781)"
     fill="#000000"
     stroke="none"
     id="g10"
     style="opacity:0.7;fill:#000000;fill-opacity:0.7">
    <path
       sodipodi:nodetypes="scccsccccsccsccccscccccsssccccscccccccscsccscc"
       transform="matrix(7.4999999,0,0,-7.4999999,0,7810)"
       d="m 902.98438,957.43945 c -6.02188,0.0352 -12.03516,1.01094 -17.78516,2.96094 -15.6,5.33333 -25.46537,15.06693 -39.33203,38.93359 -4.26667,7.20002 -10.26784,15.73362 -13.20117,18.93362 -5.06667,5.2 -6.13282,5.7324 -12.13282,5.7324 -9.73333,0 -13.99922,-3.6001 -27.19922,-23.4668 -9.73333,-14.66666 -12.39987,-17.86679 -18.5332,-21.46679 -12.66667,-7.6 -28.80143,-7.20026 -40.13476,1.0664 C 731.73268,982.26615 722.4,993.19987 714,1004.5332 c -19.33333,25.8667 -23.86667,30.1328 -32,30.1328 -13.73333,0 -19.86719,-6.0002 -25.86719,-24.9336 -3.06666,-10.13329 -5.06705,-13.9992 -8.40039,-17.1992 -6.13333,-5.86666 -9.19935,-7.19922 -16.66601,-7.19922 -10.93334,0 -14.39909,2.93218 -27.73243,22.79882 -11.06666,16.5333 -12.53489,18.1344 -19.60156,21.7344 -6.13333,3.0667 -9.33242,3.8657 -15.73242,3.7324 -11.06667,-0.1333 -17.59909,-4.0003 -25.73242,-14.9336 -20.4,-27.86663 -26.00026,-31.99998 -42.9336,-31.99998 -16.13333,0 -24.66796,4.53474 -34.66796,18.13478 -11.2,15.2 -17.33269,18.5329 -32.66602,17.5996 -13.2,-0.6667 -17.06602,-4.1332 -30.66602,-26.53321 -4.26666,-7.06667 -9.33359,-9.73412 -16.93359,-8.80078 -8.8,0.93333 -13.06784,5.73308 -17.20117,19.06639 -2.66667,8.9333 -4.26654,11.8677 -8.5332,15.7344 -4.26667,3.8667 -6.39935,4.7988 -10.66602,4.7988 -11.06667,0 -17.06706,-4.8001 -24.40039,-19.4668 -6.93333,-13.86663 -15.73203,-20.39985 -27.33203,-20.53318 -12.4,0 -20.53425,6.13347 -28.26758,21.46678 -10.4,20.6667 -23.59935,27.2001 -38.66602,19.4668 C 223.06732,1024.5329 219.2,1019.466 206,996.66602 c -8.13333,-14 -12.93294,-18 -21.59961,-18 -6.8,0 -14.26641,3.0664 -17.06641,7.0664 -0.93333,1.46667 -4.93411,11.86733 -8.80078,23.33398 -5.33333,15.6 -9.7029,28.645 -13.03624,32.1116 2.26667,1.3334 518.6399,1.5185 769.70657,0.4518 l 221.17567,-0.1305 -5.5784,-6.0325 c -2.1334,-2.2667 -7.6,-11.6008 -12,-20.8008 -13.4667,-28.1333 -20.5341,-33.99998 -40.8008,-33.99998 -14.5333,0 -19.6,2.26809 -36,16.13476 -15.4667,12.93332 -19.3333,14.53322 -38,14.53322 -22,0 -25.99935,-2.1345 -48.66602,-25.20119 -9.46666,-9.86666 -20.00065,-19.33255 -23.33398,-21.19922 -8.91667,-5 -18.97918,-7.55273 -29.01562,-7.49414 z M 140.9994,1045.9969 c -1.06666,-0.6666 -2.8,3.0667 0,0 z"
       style="fill:#000000;fill-opacity:0.7;stroke-width:0.133333"
       id="path2" />
    <path
       sodipodi:nodetypes="ccccccccccc"
       d="M 9010,449 C 8937,419 8878,357 8790,213 8750,148 8700,76 8678,54 L 8641.6141,-0.04703154 8852,-2.2282189 C 8969,-5.2282189 9206,0 9379,2 L 9687.9765,0.18118738 9653,32 c -22,14 -75,71 -118,125 -178,222 -206,252 -264,280 -78,37 -184,42 -261,12 z"
       id="path4"
       style="fill:#000000;fill-opacity:0.7" />
    <path
       sodipodi:nodetypes="cccccccccsccccc"
       d="m 10349,451 c -62,-13 -144,-59 -191,-106 -24,-25 -69,-91 -98,-146 -38,-72 -68,-114 -103,-144 l -49,-56.2517347 314,1.43292208 C 10627,-8.8188126 12483.228,-11.251735 12494.228,-0.2517347 12505.228,11.748265 12468,47 12316,143 c -71,45 -161,111 -199,146 -88,81 -142,105 -227,105 -119,0 -184,-40 -266,-164 -81,-123 -171,-185 -289,-200 -127,-16 -182,9 -408,179 -213,160 -298,218 -342,230 -53,15 -191,22 -236,12 z"
       id="path6"
       style="fill:#000000;fill-opacity:0.7" />
    <path
       sodipodi:nodetypes="ccccccccccc"
       d="M 447,376 C 393,361 342,317 305,254 272,198 200,135 94,70 L 6.2047032,0.54356215 70,0.56707792 C 106,-3.4329221 305,2 513,1 L 891,0 852,38 c -21,20 -71,94 -111,165 -61,106 -79,131 -114,151 -53,31 -119,39 -180,22 z"
       id="path8"
       style="fill:#000000;fill-opacity:0.7" />
  </g>
  <rect
     y="776.7926"
     x="20.239014"
     height="9.6376257"
     width="1213.3771"
     id="rect834"
     style="opacity:0;fill:#000000;fill-opacity:0.7;stroke:#ffffff;stroke-width:75;stroke-linecap:round;stroke-linejoin:round" />
  <rect
     y="778.72009"
     x="448.14957"
     height="25.057825"
     width="12.528913"
     id="rect836"
     style="opacity:0;fill:#000000;fill-opacity:0.7;stroke:#ffffff;stroke-width:75;stroke-linecap:round;stroke-linejoin:round" />
  <rect
     y="776.7926"
     x="20.239014"
     height="30.840391"
     width="328.64304"
     id="rect838"
     style="opacity:0;fill:#000000;fill-opacity:0.7;stroke:#ffffff;stroke-width:75;stroke-linecap:round;stroke-linejoin:round" />
  <path
     d="M 20.239014,776.7926 H 249.6145 v 29.87663 H 20.239014 Z"
     style="opacity:0;fill:#000000;fill-opacity:0.7;stroke:#ffffff;stroke-width:75;stroke-linecap:round;stroke-linejoin:round"
     id="rect840" />
  <rect
     ry="18.885315"
     y="779.5"
     x="0.5"
     height="37.77063"
     width="1250.4637"
     id="rect843"
     style="opacity:0;fill:#000000;fill-opacity:0.7;stroke:#ffffff;stroke-width:75;stroke-linecap:round;stroke-linejoin:round" />
  <path
     transform="scale(0.74999999)"
     id="path845"
     d="m 553.23278,1035.8388 c 0,-4.2084 0.23695,-4.498 2.89129,-3.5338 1.59021,0.5777 7.22822,1.0504 12.52891,1.0504 14.17645,0 19.85557,-3.1738 29.26152,-16.3527 16.35245,-22.91194 18.4879,-25.57232 22.48077,-28.00685 2.89128,-1.76287 6.46024,-2.53541 11.72836,-2.53876 7.32958,-0.005 7.76662,0.19095 13.62814,6.09903 4.86653,4.90519 6.73205,8.15048 9.49984,16.52588 6.32079,19.1268 13.32177,26.2009 25.93016,26.2009 9.04195,0 12.24833,-2.8879 33.52768,-30.1979 20.54848,-26.37193 25.62493,-30.19786 40.06812,-30.19786 8.32498,0 16.30834,2.33799 22.12422,6.47927 2.06873,1.47307 9.24143,10.39653 15.93933,19.82989 6.6979,9.4334 13.90964,18.3847 16.0261,19.8917 5.45374,3.8834 15.16845,4.7312 19.58971,1.7095 4.65252,-3.1797 10.17574,-10.3091 18.69968,-24.13755 9.27562,-15.0479 15.83027,-23.29191 23.24477,-29.23572 16.09806,-12.90498 42.2221,-14.65171 60.3391,-4.03444 3.05729,1.7917 14.12298,11.51033 24.59041,21.59697 24.61826,23.72264 26.19526,24.52334 48.30021,24.52334 20.0438,0 22.5245,-0.9205 39.7846,-14.76242 15.4061,-12.35507 19.7675,-14.45008 31.5339,-15.14728 20.7162,-1.22752 28.0626,4.31481 42.463,32.0353 5.2071,10.0235 10.7653,19.767 12.3515,21.6522 l 2.8841,3.4275 -112.6966,0.853 c -61.98321,0.4691 -192.35169,0.8533 -289.70777,0.8538 l -177.01105,8e-4 z"
     style="opacity:0;fill:#000000;fill-opacity:0.7;stroke:#ffffff;stroke-width:128.502;stroke-linecap:round;stroke-linejoin:round" />
  <rect
     ry="1.5375825"
     y="793.17651"
     x="5.7825751"
     height="50.11565"
     width="1380.1079"
     id="rect869"
     style="opacity:0.41538462;fill:#4d4d4d;fill-opacity:0.73887199;stroke:#ffffff;stroke-width:75;stroke-linecap:round;stroke-linejoin:round;filter:url(#filter911)" />
</svg>
